<svg version="1" xmlns="http://www.w3.org/2000/svg" width="2394.667" height="2394.667" viewBox="0 0 1796.000000 1796.000000"><path d="M867.8 78.5c-.2.2-4.6.6-9.8.9-5.2.4-11.5.8-14 1-2.5.2-8.5.7-13.5 1.2-17.1 1.4-22 2-23.6 2.9-.8.6-1 .4-.4-.5.5-.9.4-1.1-.4-.6-1.3.8-3.3 1.2-11.1 2-3 .4-6.8.9-8.5 1.2-1.6.3-4.3.7-6 .9-1.6.1-4.6.5-6.5.9-1.9.3-4.8.8-6.5 1.1-1.6.3-3.9.7-5 .9-1.9.3-10.4 1.8-11.5 2.1-.3.1-2.5.5-5 .9-2.5.5-5.4 1-6.5 1.3-1.1.2-3.1.6-4.5.8-1.4.2-4.3.9-6.5 1.4-2.2.6-5.3 1.2-7 1.5-1.6.3-4.5 1-6.2 1.5-1.8.5-3.3.7-3.3.4 0-.3-.7 0-1.5.7s-1.5 1-1.5.7c0-.3-2 0-4.5.7-2.5.8-4.5 1.2-4.5.9 0-.3-.6 0-1.3.6-.8.6-1.7.8-2 .4-.4-.3-1.3 0-2.2.7-.8.7-1.5 1-1.5.6 0-.3-1.1-.1-2.5.4s-3.6 1.2-4.8 1.5c-2.2.4-7.7 1.9-13.2 3.5-1.6.4-6.4 1.8-10.5 2.9-4.1 1.2-8.2 2.5-9 2.8-1.6.7-2.7 1-4.8 1.2-.7 0-1 .6-.6 1.3.4.6.3.8-.3.5-.6-.4-3.5.1-6.4 1-3 .9-5.7 1.6-6.1 1.5-.5-.1-.8.2-.8.8 0 .6-.3.9-.7.9-1.5-.3-7.4 1.4-7.9 2.2-.3.5-1.3.9-2.3.9-1 0-5.1 1.4-9.2 3-4.1 1.7-8.1 3.2-9 3.3-1 .2-2.4.9-3.3 1.6-.9.7-1.6 1.1-1.6.8 0-.5-5.1 1.4-15 5.6-1.4.6-2.7 1.1-3 1.2-1.3.4-5 2-9.8 4.1-2.9 1.3-5.4 2.4-5.6 2.4-.4 0-13.1 5.8-22.3 10.2-2.3 1-4.6 1.9-5 1.9-.4 0-1.5.6-2.3 1.4-.8.7-2.4 1.5-3.5 1.7-1.1.1-2.2.6-2.5.9-.7.9-16.8 9.1-17.7 9.1-.4-.1-1.5.5-2.3 1.2-.8.8-3.3 2.2-5.5 3.2s-4.2 2-4.5 2.3c-.3.4-2.3 1.6-4.5 2.7-9.2 4.9-16.3 8.9-24.8 14-4.9 3-9.3 5.4-9.8 5.4s-.9.3-.9.8c0 .4-1.7 1.6-3.7 2.7-2.1 1.1-4.2 2.4-4.8 2.8-.5.4-4.8 3.2-9.5 6.2s-9 5.8-9.6 6.3c-.5.5-2.1 1.5-3.5 2.2-1.3.7-2.6 1.6-2.9 1.9-.3.3-3.4 2.6-7 5.1-3.6 2.4-6.9 4.8-7.5 5.2-8.6 6.5-18.8 13.8-19.1 13.8-.3 0-1.1.6-1.8 1.2-.7.7-2.8 2.4-4.6 3.8-1.8 1.4-5.9 4.5-8.9 7-3.1 2.4-6.2 4.9-6.9 5.5-.7.5-2.3 1.9-3.5 3-1.2 1.1-3.8 3.2-5.7 4.6-1.9 1.5-4.4 3.5-5.5 4.5-1.2 1.1-5 4.4-8.5 7.4-8 6.7-6.8 5.7-18.5 16.5-12.1 11.1-39.7 38.7-48.5 48.4-3.6 4-8.1 8.9-10 10.9-1.9 2.1-5.3 5.9-7.5 8.6-2.2 2.6-4.9 5.8-6 7-1.1 1.3-3.6 4.3-5.7 6.7-2 2.4-4.5 5.5-5.7 6.9-1.1 1.4-2.4 3-2.8 3.5-.5.6-3.4 4.2-6.5 8.1-3.1 4-5.4 7.4-5.1 7.8.4.3 0 .6-.8.6s-2.5 1.8-3.8 4c-1.3 2.1-3.4 5-4.5 6.3-1.2 1.4-2.8 3.4-3.7 4.5-1 1.1-2 2.9-2.4 4.1-.3 1.2-1 2.1-1.5 2.1-.4 0-2.3 2.4-4.1 5.2-1.8 2.9-3.6 5.5-3.9 5.8-1.4 1.3-11 16.1-11 16.9 0 .5-.4 1.1-.9 1.3-1.1.4-12.1 17.6-12.1 18.9 0 .5-.4.9-.9.9s-1.3 1-1.7 2.2c-.4 1.3-1 2.5-1.4 2.8-.4.3-2.2 3.2-4.1 6.5-1.8 3.3-3.6 6.2-3.9 6.5-.4.3-1.3 2-2.1 3.7-.8 1.8-1.7 3.3-2.1 3.3-.3 0-1.1 1.5-1.7 3.3-.7 1.9-2.1 4.3-3.2 5.5-1.1 1.2-1.7 2.2-1.3 2.2.3 0 .1.7-.6 1.5s-.9 1.5-.4 1.5c.4 0-.1.7-1.2 1.5-1 .8-1.5 1.5-1.1 1.5.5 0 0 1.2-1 2.7-1 1.6-2.5 4.1-3.3 5.8-.8 1.6-2.5 4.6-3.7 6.6-1.2 2-1.9 4-1.6 4.3.4.3.1.6-.5.6-.7 0-1.1.3-1 .7.1.5-.9 2.8-2.2 5.3-1.3 2.5-2.5 4.7-2.5 5-.1.3-2.1 4.5-4.5 9.5-2.4 4.9-4.4 9.2-4.5 9.5-.1.3-1.4 3.2-3 6.5-5 10.9-6.4 14.5-5.7 14.5.4 0 .1.4-.6.9-.7.4-1.5 1.4-1.6 2.2-.3 1.4-2.3 6.2-5.1 12.4-.7 1.6-1.7 4.2-2 5.7-.4 1.6-1 2.8-1.4 2.8-.4 0-.8.6-.8 1.3 0 1.3-6.8 20-8.4 22.9-.5 1-.9 2.2-.9 2.7s-.5 2.2-1.2 3.8c-.6 1.5-1.2 3.2-1.4 3.8-.1.5-2.5 8-5.3 16.5S90 686 90 686.7c0 .7-.5 1.3-1.1 1.3-.5 0-.7.4-.4 1 .3.5-.4 4-1.5 7.7-1.2 3.8-2.3 7.6-2.5 8.6-.2 1-.7 2.7-1 3.7-.3 1-.8 2.7-1 3.7-.2 1-1.3 5.3-2.4 9.6-1.2 4.2-2.3 8.7-2.5 10-.3 1.2-.5 2.2-.6 2.2-.2 0-.5 1.3-1.3 5.5-.3 1.4-1.2 5.6-2.1 9.4-.9 3.8-1.4 7.1-1.1 7.4.3.3.1 1-.4 1.6-.5.6-1.1 2.7-1.4 4.6-.3 1.9-1 6-1.6 9-1.9 9.2-2.3 11.4-2.6 14-.1 1.4-.5 3.9-.9 5.7-.4 1.7-.9 4.5-1.2 6.2-.2 1.7-.6 4.3-.8 5.8-.2 1.6-.7 4.8-1 7.3-.4 2.5-.9 6.3-1.3 8.5-.3 2.2-.7 5.8-.9 8-.1 2.2-.3 4-.4 4-.2 0-.6 3.4-1.4 11.5-.3 3.6-.8 8.1-1 10-.2 1.9-.7 7.3-1 12-.4 4.7-.8 9.7-1 11.2-.2 1.6.2 2.8.8 2.8.8 0 .8.2 0 .8-1.5 1-1.9 11.3-1.8 53.2 0 35 .4 50.8 1.1 52.3.3.4.6 5.1.9 10.5.5 9.3 1 15.7 1.4 15.7.1 0 .3 2.7.5 6 .1 3.3.6 8 .9 10.5.8 5.2 1.5 11.7 2 17.5.2 2.2.6 4.7.9 5.5.3.8.8 3.5 1 6 .3 2.5.8 5.4 1 6.5.3 1.1 1 5.9 1.7 10.7.7 4.8 1.6 8.5 2.1 8.3.4-.3.5.4.2 1.4-.3 1 .1 4.5.8 7.8 1.9 8.6 1.9 8.6 2.1 11 .1 1.3.6 2.3 1.1 2.3.4 0 .6.4.3.8s0 2.8.5 5.3c.6 2.4 1.2 5.5 1.5 6.9.2 1.4 1.3 6.3 2.5 11 1.1 4.7 2.2 8.9 2.3 9.5.1.5.5 1.6.9 2.2.5.7.6 1.3.3 1.3s.2 2.3 1 5.2c.9 2.8 1.7 5.9 1.9 6.7.9 3.8 3.6 13.7 4.2 15.1.3.8.8 2.4 1 3.5.6 2.7.9 3.7 1.6 5.5.3.8 3.3 10 6.6 20.5 3.4 10.4 6.5 19.9 7 21 1.6 3.6 2.4 6 2.3 6.7-.1.5.2.8.6.8.4 0 .8.8.9 1.8.1.9 1.8 5.7 3.7 10.7 2 4.9 3.6 9.5 3.6 10.2 0 .6.5 1.3 1 1.5.6.2 1.2 1.3 1.4 2.5.3 1.2 1.2 3.7 2 5.5.8 1.8 1.6 4 1.8 4.8.2.8.5 1.7.8 2 .3.3 2.1 4.1 3.9 8.5 1.9 4.4 7.3 15.9 11.9 25.5 4.7 9.6 8.6 17.7 8.6 18 .1.3.4.9.8 1.5.3.5 2.8 5.3 5.6 10.5 8.4 16 8.7 16.5 9.3 17 .3.3 1.2 2 2 3.7.8 1.8 1.7 3.3 2.1 3.3.5 0 .8.7.8 1.5 0 .9.5 2.1 1.1 2.8.5.7 3.8 5.9 7.2 11.7 3.3 5.8 6.5 10.6 6.9 10.8.4.2.8 1 .8 1.8s.4 1.4.9 1.4 1.1.8 1.4 1.8c.6 1.7 3.7 7.2 4.7 8.2.5.5 17.2 25.2 19.5 28.8.6.9 1.4 2.1 1.8 2.6.5.6 4 5.4 7.8 10.6 3.9 5.2 7.9 10.6 8.9 12 1.1 1.4 2.7 3.6 3.7 4.9 1 1.3 3 3.8 4.6 5.6 1.5 1.8 2.7 3.8 2.7 4.4 0 .6.4 1.1.9 1.1s2.7 2.4 4.9 5.2c2.2 2.9 5.1 6.5 6.4 8 1.3 1.4 3.9 4.6 5.8 6.9 1.9 2.4 5.1 6 7 8.1 1.9 2 4.3 4.8 5.3 6 3.5 4.5 21.4 23.4 35.3 37.2 12.1 12.1 18.2 17.9 35.4 33.6 3.9 3.6 13.2 11.6 21 18 2.3 1.9 5.3 4.5 6.6 5.7 1.3 1.3 2.6 2.3 2.8 2.3.6 0 4.7 3.3 7.8 6.3 1 .9 2 1.7 2.3 1.7.3 0 1.3.6 2.2 1.4 2.2 1.8 9.3 7.5 12.5 9.9 1.3 1 3.5 2.6 5.1 3.5 1.5.9 2.7 2 2.7 2.4 0 .4.6.8 1.4.8.8 0 1.7.7 2 1.6.3.8 1 1.2 1.6.9.5-.3 1-.2 1 .4 0 .5 1.8 2 4 3.2 2.2 1.3 4 2.6 4 3.1 0 .4.7.8 1.5.8s1.5.4 1.5 1c0 .5.6 1 1.4 1 .8 0 1.6.4 1.8.8.4 1.2 21.5 15.2 22.8 15.2.5 0 1 .4 1 .9s1.4 1.4 3 2.1c1.7.7 3 1.6 3 2.1s.7.9 1.5.9 1.5.4 1.5.8 1.2 1.3 2.8 2c5 2.3 7.2 3.7 7.2 4.4 0 .5.4.8.9.8.9 0 3.9 1.7 15.3 8.5 2.3 1.4 7.9 4.5 16.8 9.4 9.2 5.1 46.1 23.5 55 27.5 15 6.7 19.3 8.5 28 12 3.6 1.5 7.4 3.1 8.5 3.6 1.9.8 3.5 1.3 6 2 .6.2 3.8 1.6 7.3 3.1 3.4 1.6 6.2 2.6 6.2 2.2 0-.3.6-.1 1.3.4.6.6 3 1.6 5.2 2.2 2.2.7 4.9 1.6 6 2.1 2.4 1 14.2 5.1 15.9 5.5.6.1 1.8.5 2.6.8 3.4 1.3 11.7 3.9 13.9 4.3 1.4.3 2.9.8 3.5 1.2.6.3 1.6.7 2.1.9 2 .4 24 6.5 25.5 7 .8.4 2 .7 2.5.8.6.1 8.7 2.1 18 4.4 9.4 2.4 18.2 4.4 19.7 4.6 1.5.2 3.5.6 4.5.9 1.8.5 5.9 1.4 9.8 2.1 1.1.2 4.5.9 7.5 1.5s6.6 1.3 8 1.5c2.5.4 6.8 1.1 10.5 1.9 1.2.2 4.8.8 8 1.2 3.3.4 6.2.9 6.5.9.6.2 9.8 1.4 14.5 2 1.7.2 3 .4 3 .5 0 .1 1.6.4 3.5.5 1.9.2 6 .7 9 1 6.2.7 11.9 1.3 20 2 3 .3 7.5.7 10 .9 16.5 1.5 32.2 2 66.5 2 35.5 0 49.9-.4 65.5-1.9 3-.3 8.4-.8 12-1.1 3.6-.2 8.1-.7 10-.9 1.9-.3 6-.7 9-.9 3-.3 5.5-.5 5.5-.6 0-.1 1.4-.4 3-.5 1.7-.2 5-.6 7.5-1 2.5-.3 6.1-.8 8-1 1.9-.2 4.6-.6 6-.9 1.4-.3 4.1-.7 6-1 7.6-1.1 11.8-1.8 19.5-3.2 10-1.9 11.8-2.3 15.3-3 2.9-.5 8.1-1.5 9.7-1.8.6-.1 1.6-.5 2.3-.9.6-.5 1.2-.6 1.2-.4 0 .3 3.7-.4 8.3-1.4 9.8-2.3 12.9-3 14.2-3.3.6-.1 1.6-.5 2.3-.9.6-.5 1.2-.6 1.2-.3 0 .2 2.4-.2 5.3-1 2.8-.8 6.1-1.7 7.2-1.9 1.1-.3 5.2-1.4 9-2.6 3.9-1.1 8.8-2.5 11-3 2.2-.5 4.7-1.2 5.5-1.5.8-.3 1.6-.5 1.8-.5.1.1 1.8-.5 3.7-1.3 2-.9 3.9-1.5 4.3-1.6.6 0 5.1-1.3 9.2-2.6.8-.3 1.6-.5 1.8-.5.1.1 1.8-.5 3.7-1.3 2-.9 3.9-1.6 4.3-1.7.9-.2.5-.1 14.2-4.9 6.3-2.2 12.2-4.3 13-4.7.8-.3 1.7-.7 2-.7 1.7-.4 23.7-9.2 26.2-10.6 1-.6 2.5-1 3.3-1 .8 0 1.5-.5 1.5-1.2 0-.6.3-.9.6-.5.3.3 3.5-.8 7.2-2.4 3.6-1.7 8.2-3.7 10.1-4.6 7.4-3.2 10.6-4.8 11.2-5.6.3-.5.9-.8 1.3-.8.3.1 2.2-.5 4.1-1.3 2-.9 3.7-1.4 3.9-1.3.1.1.9-.3 1.7-1 .8-.6 7.4-4.1 14.7-7.8 7.2-3.6 15.4-7.8 18.1-9.4 2.7-1.6 5.2-2.7 5.5-2.4.3.4.6.2.6-.3 0-.6 2.2-2.1 5-3.5 2.7-1.3 5-2.8 5-3.2 0-.5.5-.5 1-.2.6.3 1 .1 1-.4 0-.6.6-1.1 1.4-1.1.7 0 1.9-.7 2.6-1.5.7-.8 1.6-1.3 2-1 .4.2 1.6-.4 2.6-1.3 1-1 3.4-2.4 5.2-3.1 1.7-.7 3.2-1.7 3.2-2.1 0-.4 1.8-1.5 4-2.5s4-2.2 4-2.7c0-.4.5-.8 1.1-.8.6 0 8.8-5.1 18.3-11.4 26-17.3 34.5-23.3 33.9-24-.4-.3.1-.6 1-.6 1 0 1.7-.5 1.7-1 0-.6.5-1 1.1-1 .9 0 4.5-2.6 12.5-9 1.7-1.4 4.6-3.6 6.4-5 6.5-5 19.4-15.5 21.7-17.7 1.3-1.2 2.3-1.9 2.3-1.5 0 .4.6 0 1.3-.8.7-.8 3-3 5.2-4.9 14.1-11.9 30.3-27 48.4-45.3 21.1-21.1 36.1-37.3 36.1-38.9 0-.6.5-.7 1-.4.6.3 1 .3 1-.2 0-.4 1-2 2.3-3.4 7.5-9 10.5-12.5 12.7-15.1 1.4-1.7 3.2-3.9 4.1-4.9.8-1 2.4-3 3.5-4.5 1-1.5 2.6-3.4 3.4-4.3.8-.9 6.6-8.4 12.7-16.6 6.2-8.3 11.6-15.5 12.1-16 .4-.6 2.8-3.9 5.2-7.5 2.4-3.6 4.6-6.7 4.9-7 1.3-1.1 14.1-21 14.1-21.9 0-.5.3-1.1.8-1.3.4-.1 3-3.9 5.7-8.3 6.9-11 6.8-10.8 8.9-14.6 1-1.9 2.4-3.7 3-4.1.6-.4.7-.8.3-.8-.5 0 0-1.2 1.1-2.8 3.1-4.4 12.6-21.8 19.9-36.2 2.6-5.2 5.1-9.7 5.6-9.8.4-.2.7-.7.7-1.2 0-.4 2.9-6.8 6.4-14.2 7.8-16.2 11-23.1 11.1-23.8 0-.3 1.1-2.7 2.3-5.4 1.3-2.8 2.5-6 2.8-7.3.4-1.3 1-2.3 1.5-2.3s.8-.3.7-.8c-.2-.6 3.9-11.5 10.7-28.7.5-1.1.9-2.2 1-2.5.1-.3.4-1.2.8-2 1.6-4.2 5.7-16 6.7-19.5.7-2.2 1.5-4.5 1.9-5 .3-.6.7-1.6.8-2.2.5-2 .9-3.7 1.6-5.3.3-.8 1.3-4 2.2-7 .9-3 1.8-6.1 2.1-6.8.2-.7.4-1.4.4-1.7 0-.3.7-2.3 1.5-4.6.9-2.3 1.7-5.1 2-6.3.2-1.2 1.5-6 2.9-10.8 1.3-4.7 2.2-8.9 1.8-9.2-.3-.3-.1-.6.5-.6.5 0 1-.6 1.1-1.3.1-1.8 1.2-6.9 1.9-9.2.4-1.1.8-2.5.9-3 .8-3.6 1.5-6.5 2.4-10 .6-2.2 1.2-4.9 1.4-6 1.1-6.2 1.7-9.2 2.3-11 .3-1.1.7-2.9.9-4 .2-1.1.6-3.4.9-5 .3-1.7 1-5.3 1.5-8 .5-2.8 1.2-6.4 1.5-8 .5-2.8 2.7-15.9 3.9-23.5.3-1.9.8-4.6 1-6 .2-1.4.7-5 1-8 .4-3 .9-7 1.2-8.8.4-1.9.8-5.7.9-8.5.2-2.9.4-5.2.5-5.2.1 0 .3-1.1.5-2.5.4-4 1.5-17 2-23 .2-3 .7-9.6 1.1-14.5 1-11.6 1-86.9.1-100.3-1.1-15.3-2.7-34.5-3.3-39.2-.1-1.4-.5-5-.9-8-.3-3-.8-7.1-1.1-9-.5-3.9-1.3-9.9-1.9-15.7-.2-2.1-.4-3.8-.5-3.8-.3 0-1.5-7.5-2.5-15.2-.2-1.3-.7-4.2-1.1-6.5-.5-2.4-.9-4.8-.9-5.3-.1-.6-.7-3.5-1.3-6.5-.6-3-1.4-6.9-1.7-8.5-.7-3.6-1.3-6.7-2-9.8-.3-1.2-.9-4.2-1.4-6.7-.5-2.5-1.9-8.3-3.1-13-1.1-4.7-2.3-9.4-2.5-10.5-.3-1.1-.7-2.9-1-4-1-4.5-6.5-24.5-8.5-31-1.2-3.9-2.3-7.7-2.5-8.5-.3-1.5-12.8-38.2-16.9-49.7-1.2-3.5-2.5-6.6-2.9-7-.4-.3-.7-1.2-.7-2 0-.7-.9-3.2-1.9-5.6-1.1-2.3-3.2-7.1-4.6-10.7-3.8-9.2-5.5-13.2-6.6-15.2-.5-1-.9-2.5-.9-3.3 0-.8-.4-1.5-1-1.5-.5 0-1-.5-1-1.2 0-2.6-27.2-58.2-29-59.3-.6-.4-.8-1.1-.5-1.6.4-.5.2-.9-.3-.9-.6 0-1.5-1.2-2.1-2.8-.6-1.5-2.6-5.4-4.6-8.7-1.9-3.3-4.1-7.1-4.7-8.5-.7-1.4-1.5-2.7-1.9-3-.3-.3-2.2-3.4-4.3-7-2.1-3.6-5.1-8.5-6.7-11-1.6-2.5-3.2-5.3-3.5-6.3-.4-.9-1-1.7-1.5-1.7s-.9-.4-.9-1c0-1.2-16-25.4-17.2-25.8-.4-.2-.8-1-.8-1.8s-.3-1.4-.8-1.4c-.4 0-1.2-.8-1.7-1.9-1.1-2.1-9.5-14.3-10.4-15.1-.3-.3-4.5-5.7-9.2-12-4.8-6.3-9.5-12.5-10.5-13.7-1.1-1.2-2.9-3.5-4.1-5-1.2-1.5-3-3.8-4-5-1-1.2-2.9-3.6-4.3-5.3-1.4-1.8-3.6-4.4-4.9-5.9-1.3-1.4-4.4-5-7-8-2.5-3-6.2-7.1-8.1-9.2-1.9-2.1-6.4-7-10-11-7.5-8.4-35.8-36.7-45.1-45.2-3.5-3.3-8.5-7.9-11.1-10.3-2.6-2.4-4.9-4.4-5.2-4.4-.2 0-2.3-1.9-4.5-4.2-2.3-2.2-4.1-3.8-4.1-3.5 0 .4-1.3-.7-2.9-2.3-1.5-1.7-3.4-3-4.1-3-.7 0-1-.3-.7-.7.4-.3-.9-1.7-2.9-3.1-2-1.3-4.4-3.2-5.3-4.1-.9-.9-3.4-3-5.5-4.6-8.3-6.5-16.2-12.8-18.4-14.6-1.2-1-2.4-1.9-2.6-1.9-.3 0-4.4-3-9.3-6.6-12.3-9.1-11.8-8.8-13.5-9.9-6.8-4.3-19.4-13.1-19.6-13.8-.2-.4-.9-.7-1.6-.7-.7 0-2.1-.9-3.1-2s-2.2-2-2.6-2c-.5 0-4.1-2.1-8.1-4.7s-8.5-5.5-9.9-6.3c-1.4-.8-5.9-3.5-10-5.9-4.1-2.3-8.5-5.1-9.9-6-1.4-.9-4-2.3-5.7-3-1.8-.8-3.3-1.7-3.3-2.1 0-.4-1.1-1.1-2.5-1.4-1.4-.4-2.5-1.1-2.5-1.6 0-.6-.7-1-1.5-1s-3.6-1.3-6.2-2.8c-2.6-1.6-6.8-3.8-9.3-5.1-2.5-1.2-5.2-2.6-6-3.1-4.6-2.8-30.4-15-31.6-15-.8 0-1.4-.5-1.4-1 0-.6-.7-1-1.6-1-.9 0-2.8-.7-4.2-1.4-2.8-1.5-10.3-5-11.2-5.2-.5-.1-6.6-2.7-11.5-4.9-1.6-.7-7.3-3-12.5-5s-10.8-4.3-12.3-5.2c-1.6-.8-3.1-1.2-3.4-.9-.4.3-1.1.2-1.7-.2-.6-.5-4-1.9-7.6-3.1-3.6-1.3-7.4-2.7-8.5-3.1-1.9-.8-5.7-2.1-8-2.6-.5-.2-4-1.4-7.7-2.8-3.8-1.4-6.8-2.2-6.8-1.8 0 .3-.5.1-1.2-.6s-2-1.2-3-1.2-2.6-.4-3.6-.9c-1.5-.8-12.1-4.1-14.7-4.7-.5-.1-3-.7-5.5-1.4s-4.9-1.3-5.5-1.5c-.5-.1-1.7-.4-2.5-.7-7.6-2.5-8-2.6-8-1.5 0 .9-.2.9-.8.1-.6-.9-4.2-2.2-6.7-2.5-.2 0-3.4-.9-7-1.9-3.6-1-6.5-1.7-6.5-1.5 0 .3-1.2 0-2.7-.6-1.6-.6-3.7-1.2-4.8-1.3-1.1-.2-3.3-.6-5-1-4.8-1-7.8-1.7-10.5-2.2-3-.5-6.6-1.3-10-2-1.4-.2-3.6-.7-5-.9-1.4-.2-5-.8-8-1.4-3-.6-7.1-1.3-9-1.6-1.9-.3-4.8-.8-6.3-1.1-1.5-.3-4.4-.8-6.5-1-2-.2-5-.6-6.7-.9-1.6-.3-4.8-.7-7-1-8.2-.9-13.9-1.7-15.6-2-1-.2-4.9-.6-8.6-1-3.7-.3-9-.8-11.8-1.1-2.7-.3-8.4-.7-12.5-1-4.1-.2-9.7-.7-12.5-1-5.3-.6-91.2-1.4-91.7-.9z"/></svg>