<?xml version="1.0" standalone="no"?>
<!DOCTYPE svg PUBLIC "-//W3C//DTD SVG 20010904//EN"
 "http://www.w3.org/TR/2001/REC-SVG-20010904/DTD/svg10.dtd">
<svg version="1.0" xmlns="http://www.w3.org/2000/svg"
 width="1796.000000pt" height="1796.000000pt" viewBox="0 0 1796.000000 1796.000000"
 preserveAspectRatio="xMidYMid meet">
<metadata>
Created by potrace 1.11, written by Peter Selinger 2001-2013
</metadata>
<g transform="translate(0.000000,1796.000000) scale(0.100000,-0.100000)"
fill="#000000" stroke="none">
<path d="M8678 17175 c-2 -2 -46 -6 -98 -9 -52 -4 -115 -8 -140 -10 -25 -2
-85 -7 -135 -12 -171 -14 -220 -20 -236 -29 -8 -6 -10 -4 -4 5 5 9 4 11 -4 6
-13 -8 -33 -12 -111 -20 -30 -4 -68 -9 -85 -12 -16 -3 -43 -7 -60 -9 -16 -1
-46 -5 -65 -9 -19 -3 -48 -8 -65 -11 -16 -3 -39 -7 -50 -9 -19 -3 -104 -18
-115 -21 -3 -1 -25 -5 -50 -9 -25 -5 -54 -10 -65 -13 -11 -2 -31 -6 -45 -8
-14 -2 -43 -9 -65 -14 -22 -6 -53 -12 -70 -15 -16 -3 -45 -10 -62 -15 -18 -5
-33 -7 -33 -4 0 3 -7 0 -15 -7 -8 -7 -15 -10 -15 -7 0 3 -20 0 -45 -7 -25 -8
-45 -12 -45 -9 0 3 -6 0 -13 -6 -8 -6 -17 -8 -20 -4 -4 3 -13 0 -22 -7 -8 -7
-15 -10 -15 -6 0 3 -11 1 -25 -4 -14 -5 -36 -12 -48 -15 -22 -4 -77 -19 -132
-35 -16 -4 -64 -18 -105 -29 -41 -12 -82 -25 -90 -28 -16 -7 -27 -10 -48 -12
-7 0 -10 -6 -6 -13 4 -6 3 -8 -3 -5 -6 4 -35 -1 -64 -10 -30 -9 -57 -16 -61
-15 -5 1 -8 -2 -8 -8 0 -6 -3 -9 -7 -9 -15 3 -74 -14 -79 -22 -3 -5 -13 -9
-23 -9 -10 0 -51 -14 -92 -30 -41 -17 -81 -32 -90 -33 -10 -2 -24 -9 -33 -16
-9 -7 -16 -11 -16 -8 0 5 -51 -14 -150 -56 -14 -6 -27 -11 -30 -12 -13 -4 -50
-20 -98 -41 -29 -13 -54 -24 -56 -24 -4 0 -131 -58 -223 -102 -23 -10 -46 -19
-50 -19 -4 0 -15 -6 -23 -14 -8 -7 -24 -15 -35 -17 -11 -1 -22 -6 -25 -9 -7
-9 -168 -91 -177 -91 -4 1 -15 -5 -23 -12 -8 -8 -33 -22 -55 -32 -22 -10 -42
-20 -45 -23 -3 -4 -23 -16 -45 -27 -92 -49 -163 -89 -248 -140 -49 -30 -93
-54 -98 -54 -5 0 -9 -3 -9 -8 0 -4 -17 -16 -37 -27 -21 -11 -42 -24 -48 -28
-5 -4 -48 -32 -95 -62 -47 -30 -90 -58 -96 -63 -5 -5 -21 -15 -35 -22 -13 -7
-26 -16 -29 -19 -3 -3 -34 -26 -70 -51 -36 -24 -69 -48 -75 -52 -86 -65 -188
-138 -191 -138 -3 0 -11 -6 -18 -12 -7 -7 -28 -24 -46 -38 -18 -14 -59 -45
-89 -70 -31 -24 -62 -49 -69 -55 -7 -5 -23 -19 -35 -30 -12 -11 -38 -32 -57
-46 -19 -15 -44 -35 -55 -45 -12 -11 -50 -44 -85 -74 -80 -67 -68 -57 -185
-165 -121 -111 -397 -387 -485 -484 -36 -40 -81 -89 -100 -109 -19 -21 -53
-59 -75 -86 -22 -26 -49 -58 -60 -70 -11 -13 -36 -43 -57 -67 -20 -24 -45 -55
-57 -69 -11 -14 -24 -30 -28 -35 -5 -6 -34 -42 -65 -81 -31 -40 -54 -74 -51
-78 4 -3 0 -6 -8 -6 -8 0 -25 -18 -38 -40 -13 -21 -34 -50 -45 -63 -12 -14
-28 -34 -37 -45 -10 -11 -20 -29 -24 -41 -3 -12 -10 -21 -15 -21 -4 0 -23 -24
-41 -52 -18 -29 -36 -55 -39 -58 -14 -13 -110 -161 -110 -169 0 -5 -4 -11 -9
-13 -11 -4 -121 -176 -121 -189 0 -5 -4 -9 -9 -9 -5 0 -13 -10 -17 -22 -4 -13
-10 -25 -14 -28 -4 -3 -22 -32 -41 -65 -18 -33 -36 -62 -39 -65 -4 -3 -13 -20
-21 -37 -8 -18 -17 -33 -21 -33 -3 0 -11 -15 -17 -33 -7 -19 -21 -43 -32 -55
-11 -12 -17 -22 -13 -22 3 0 1 -7 -6 -15 -7 -8 -9 -15 -4 -15 4 0 -1 -7 -12
-15 -10 -8 -15 -15 -11 -15 5 0 0 -12 -10 -27 -10 -16 -25 -41 -33 -58 -8 -16
-25 -46 -37 -66 -12 -20 -19 -40 -16 -43 4 -3 1 -6 -5 -6 -7 0 -11 -3 -10 -7
1 -5 -9 -28 -22 -53 -13 -25 -25 -47 -25 -50 -1 -3 -21 -45 -45 -95 -24 -49
-44 -92 -45 -95 -1 -3 -14 -32 -30 -65 -50 -109 -64 -145 -57 -145 4 0 1 -4
-6 -9 -7 -4 -15 -14 -16 -22 -3 -14 -23 -62 -51 -124 -7 -16 -17 -42 -20 -57
-4 -16 -10 -28 -14 -28 -4 0 -8 -6 -8 -13 0 -13 -68 -200 -84 -229 -5 -10 -9
-22 -9 -27 0 -5 -5 -22 -12 -38 -6 -15 -12 -32 -14 -38 -1 -5 -25 -80 -53
-165 -28 -85 -51 -160 -51 -167 0 -7 -5 -13 -11 -13 -5 0 -7 -4 -4 -10 3 -5
-4 -40 -15 -77 -12 -38 -23 -76 -25 -86 -2 -10 -7 -27 -10 -37 -3 -10 -8 -27
-10 -37 -2 -10 -13 -53 -24 -96 -12 -42 -23 -87 -25 -100 -3 -12 -5 -22 -6
-22 -2 0 -5 -13 -13 -55 -3 -14 -12 -56 -21 -94 -9 -38 -14 -71 -11 -74 3 -3
1 -10 -4 -16 -5 -6 -11 -27 -14 -46 -3 -19 -10 -60 -16 -90 -19 -92 -23 -114
-26 -140 -1 -14 -5 -39 -9 -57 -4 -17 -9 -45 -12 -62 -2 -17 -6 -43 -8 -58 -2
-16 -7 -48 -10 -73 -4 -25 -9 -63 -13 -85 -3 -22 -7 -58 -9 -80 -1 -22 -3 -40
-4 -40 -2 0 -6 -34 -14 -115 -3 -36 -8 -81 -10 -100 -2 -19 -7 -73 -10 -120
-4 -47 -8 -97 -10 -112 -2 -16 2 -28 8 -28 8 0 8 -2 0 -8 -15 -10 -19 -113
-18 -532 0 -350 4 -508 11 -523 3 -4 6 -51 9 -105 5 -93 10 -157 14 -157 1 0
3 -27 5 -60 1 -33 6 -80 9 -105 8 -52 15 -117 20 -175 2 -22 6 -47 9 -55 3 -8
8 -35 10 -60 3 -25 8 -54 10 -65 3 -11 10 -59 17 -107 7 -48 16 -85 21 -83 4
3 5 -4 2 -14 -3 -10 1 -45 8 -78 19 -86 19 -86 21 -110 1 -13 6 -23 11 -23 4
0 6 -4 3 -8 -3 -4 0 -28 5 -53 6 -24 12 -55 15 -69 2 -14 13 -63 25 -110 11
-47 22 -89 23 -95 1 -5 5 -16 9 -22 5 -7 6 -13 3 -13 -3 0 2 -23 10 -52 9 -28
17 -59 19 -67 9 -38 36 -137 42 -151 3 -8 8 -24 10 -35 6 -27 9 -37 16 -55 3
-8 33 -100 66 -205 34 -104 65 -199 70 -210 16 -36 24 -60 23 -67 -1 -5 2 -8
6 -8 4 0 8 -8 9 -18 1 -9 18 -57 37 -107 20 -49 36 -95 36 -102 0 -6 5 -13 10
-15 6 -2 12 -13 14 -25 3 -12 12 -37 20 -55 8 -18 16 -40 18 -48 2 -8 5 -17 8
-20 3 -3 21 -41 39 -85 19 -44 73 -159 119 -255 47 -96 86 -177 86 -180 1 -3
4 -9 8 -15 3 -5 28 -53 56 -105 84 -160 87 -165 93 -170 3 -3 12 -20 20 -37 8
-18 17 -33 21 -33 5 0 8 -7 8 -15 0 -9 5 -21 11 -28 5 -7 38 -59 72 -117 33
-58 65 -106 69 -108 4 -2 8 -10 8 -18 0 -8 4 -14 9 -14 5 0 11 -8 14 -18 6
-17 37 -72 47 -82 5 -5 172 -252 195 -288 6 -9 14 -21 18 -26 5 -6 40 -54 78
-106 39 -52 79 -106 89 -120 11 -14 27 -36 37 -49 10 -13 30 -38 46 -56 15
-18 27 -38 27 -44 0 -6 4 -11 9 -11 5 0 27 -24 49 -52 22 -29 51 -65 64 -80
13 -14 39 -46 58 -69 19 -24 51 -60 70 -81 19 -20 43 -48 53 -60 35 -45 214
-234 353 -372 121 -121 182 -179 354 -336 39 -36 132 -116 210 -180 23 -19 53
-45 66 -57 13 -13 26 -23 28 -23 6 0 47 -33 78 -63 10 -9 20 -17 23 -17 3 0
13 -6 22 -14 22 -18 93 -75 125 -99 13 -10 35 -26 51 -35 15 -9 27 -20 27 -24
0 -4 6 -8 14 -8 8 0 17 -7 20 -16 3 -8 10 -12 16 -9 5 3 10 2 10 -4 0 -5 18
-20 40 -32 22 -13 40 -26 40 -31 0 -4 7 -8 15 -8 8 0 15 -4 15 -10 0 -5 6 -10
14 -10 8 0 16 -4 18 -8 4 -12 215 -152 228 -152 5 0 10 -4 10 -9 0 -5 14 -14
30 -21 17 -7 30 -16 30 -21 0 -5 7 -9 15 -9 8 0 15 -4 15 -8 0 -4 12 -13 28
-20 50 -23 72 -37 72 -44 0 -5 4 -8 9 -8 9 0 39 -17 153 -85 23 -14 79 -45
168 -94 92 -51 461 -235 550 -275 150 -67 193 -85 280 -120 36 -15 74 -31 85
-36 19 -8 35 -13 60 -20 6 -2 38 -16 73 -31 34 -16 62 -26 62 -22 0 3 6 1 13
-4 6 -6 30 -16 52 -22 22 -7 49 -16 60 -21 24 -10 142 -51 159 -55 6 -1 18 -5
26 -8 34 -13 117 -39 139 -43 14 -3 29 -8 35 -12 6 -3 16 -7 21 -9 20 -4 240
-65 255 -70 8 -4 20 -7 25 -8 6 -1 87 -21 180 -44 94 -24 182 -44 197 -46 15
-2 35 -6 45 -9 18 -5 59 -14 98 -21 11 -2 45 -9 75 -15 30 -6 66 -13 80 -15
25 -4 68 -11 105 -19 12 -2 48 -8 80 -12 33 -4 62 -9 65 -9 6 -2 98 -14 145
-20 17 -2 30 -4 30 -5 0 -1 16 -4 35 -5 19 -2 60 -7 90 -10 62 -7 119 -13 200
-20 30 -3 75 -7 100 -9 165 -15 322 -20 665 -20 355 0 499 4 655 19 30 3 84 8
120 11 36 2 81 7 100 9 19 3 60 7 90 9 30 3 55 5 55 6 0 1 14 4 30 5 17 2 50
6 75 10 25 3 61 8 80 10 19 2 46 6 60 9 14 3 41 7 60 10 76 11 118 18 195 32
100 19 118 23 153 30 29 5 81 15 97 18 6 1 16 5 23 9 6 5 12 6 12 4 0 -3 37 4
83 14 98 23 129 30 142 33 6 1 16 5 23 9 6 5 12 6 12 3 0 -2 24 2 53 10 28 8
61 17 72 19 11 3 52 14 90 26 39 11 88 25 110 30 22 5 47 12 55 15 8 3 16 5
18 5 1 -1 18 5 37 13 20 9 39 15 43 16 6 0 51 13 92 26 8 3 16 5 18 5 1 -1 18
5 37 13 20 9 39 16 43 17 9 2 5 1 142 49 63 22 122 43 130 47 8 3 17 7 20 7
17 4 237 92 262 106 10 6 25 10 33 10 8 0 15 5 15 12 0 6 3 9 6 5 3 -3 35 8
72 24 36 17 82 37 101 46 74 32 106 48 112 56 3 5 9 8 13 8 3 -1 22 5 41 13
20 9 37 14 39 13 1 -1 9 3 17 10 8 6 74 41 147 78 72 36 154 78 181 94 27 16
52 27 55 24 3 -4 6 -2 6 3 0 6 22 21 50 35 27 13 50 28 50 32 0 5 5 5 10 2 6
-3 10 -1 10 4 0 6 6 11 14 11 7 0 19 7 26 15 7 8 16 13 20 10 4 -2 16 4 26 13
10 10 34 24 52 31 17 7 32 17 32 21 0 4 18 15 40 25 22 10 40 22 40 27 0 4 5
8 11 8 6 0 88 51 183 114 260 173 345 233 339 240 -4 3 1 6 10 6 10 0 17 5 17
10 0 6 5 10 11 10 9 0 45 26 125 90 17 14 46 36 64 50 65 50 194 155 217 177
13 12 23 19 23 15 0 -4 6 0 13 8 7 8 30 30 52 49 141 119 303 270 484 453 211
211 361 373 361 389 0 6 5 7 10 4 6 -3 10 -3 10 2 0 4 10 20 23 34 75 90 105
125 127 151 14 17 32 39 41 49 8 10 24 30 35 45 10 15 26 34 34 43 8 9 66 84
127 166 62 83 116 155 121 160 4 6 28 39 52 75 24 36 46 67 49 70 13 11 141
210 141 219 0 5 3 11 8 13 4 1 30 39 57 83 69 110 68 108 89 146 10 19 24 37
30 41 6 4 7 8 3 8 -5 0 0 12 11 28 31 44 126 218 199 362 26 52 51 97 56 98 4
2 7 7 7 12 0 4 29 68 64 142 78 162 110 231 111 238 0 3 11 27 23 54 13 28 25
60 28 73 4 13 10 23 15 23 5 0 8 3 7 8 -2 6 39 115 107 287 5 11 9 22 10 25 1
3 4 12 8 20 16 42 57 160 67 195 7 22 15 45 19 50 3 6 7 16 8 22 5 20 9 37 16
53 3 8 13 40 22 70 9 30 18 61 21 68 2 7 4 14 4 17 0 3 7 23 15 46 9 23 17 51
20 63 2 12 15 60 29 108 13 47 22 89 18 92 -3 3 -1 6 5 6 5 0 10 6 11 13 1 18
12 69 19 92 4 11 8 25 9 30 8 36 15 65 24 100 6 22 12 49 14 60 11 62 17 92
23 110 3 11 7 29 9 40 2 11 6 34 9 50 3 17 10 53 15 80 5 28 12 64 15 80 5 28
27 159 39 235 3 19 8 46 10 60 2 14 7 50 10 80 4 30 9 70 12 88 4 19 8 57 9
85 2 29 4 52 5 52 1 0 3 11 5 25 4 40 15 170 20 230 2 30 7 96 11 145 10 116
10 869 1 1003 -11 153 -27 345 -33 392 -1 14 -5 50 -9 80 -3 30 -8 71 -11 90
-5 39 -13 99 -19 157 -2 21 -4 38 -5 38 -3 0 -15 75 -25 152 -2 13 -7 42 -11
65 -5 24 -9 48 -9 53 -1 6 -7 35 -13 65 -6 30 -14 69 -17 85 -7 36 -13 67 -20
98 -3 12 -9 42 -14 67 -5 25 -19 83 -31 130 -11 47 -23 94 -25 105 -3 11 -7
29 -10 40 -10 45 -65 245 -85 310 -12 39 -23 77 -25 85 -3 15 -128 382 -169
497 -12 35 -25 66 -29 70 -4 3 -7 12 -7 20 0 7 -9 32 -19 56 -11 23 -32 71
-46 107 -38 92 -55 132 -66 152 -5 10 -9 25 -9 33 0 8 -4 15 -10 15 -5 0 -10
5 -10 12 0 26 -272 582 -290 593 -6 4 -8 11 -5 16 4 5 2 9 -3 9 -6 0 -15 12
-21 28 -6 15 -26 54 -46 87 -19 33 -41 71 -47 85 -7 14 -15 27 -19 30 -3 3
-22 34 -43 70 -21 36 -51 85 -67 110 -16 25 -32 53 -35 63 -4 9 -10 17 -15 17
-5 0 -9 4 -9 10 0 12 -160 254 -172 258 -4 2 -8 10 -8 18 0 8 -3 14 -8 14 -4
0 -12 8 -17 19 -11 21 -95 143 -104 151 -3 3 -45 57 -92 120 -48 63 -95 125
-105 137 -11 12 -29 35 -41 50 -12 15 -30 38 -40 50 -10 12 -29 36 -43 53 -14
18 -36 44 -49 59 -13 14 -44 50 -70 80 -25 30 -62 71 -81 92 -19 21 -64 70
-100 110 -75 84 -358 367 -451 452 -35 33 -85 79 -111 103 -26 24 -49 44 -52
44 -2 0 -23 19 -45 42 -23 22 -41 38 -41 35 0 -4 -13 7 -29 23 -15 17 -34 30
-41 30 -7 0 -10 3 -7 7 4 3 -9 17 -29 31 -20 13 -44 32 -53 41 -9 9 -34 30
-55 46 -83 65 -162 128 -184 146 -12 10 -24 19 -26 19 -3 0 -44 30 -93 66
-123 91 -118 88 -135 99 -68 43 -194 131 -196 138 -2 4 -9 7 -16 7 -7 0 -21 9
-31 20 -10 11 -22 20 -26 20 -5 0 -41 21 -81 47 -40 26 -85 55 -99 63 -14 8
-59 35 -100 59 -41 23 -85 51 -99 60 -14 9 -40 23 -57 30 -18 8 -33 17 -33 21
0 4 -11 11 -25 14 -14 4 -25 11 -25 16 0 6 -7 10 -15 10 -8 0 -36 13 -62 28
-26 16 -68 38 -93 51 -25 12 -52 26 -60 31 -46 28 -304 150 -316 150 -8 0 -14
5 -14 10 0 6 -7 10 -16 10 -9 0 -28 7 -42 14 -28 15 -103 50 -112 52 -5 1 -66
27 -115 49 -16 7 -73 30 -125 50 -52 20 -108 43 -123 52 -16 8 -31 12 -34 9
-4 -3 -11 -2 -17 2 -6 5 -40 19 -76 31 -36 13 -74 27 -85 31 -19 8 -57 21 -80
26 -5 2 -40 14 -77 28 -38 14 -68 22 -68 18 0 -3 -5 -1 -12 6 -7 7 -20 12 -30
12 -10 0 -26 4 -36 9 -15 8 -121 41 -147 47 -5 1 -30 7 -55 14 -25 7 -49 13
-55 15 -5 1 -17 4 -25 7 -76 25 -80 26 -80 15 0 -9 -2 -9 -8 -1 -6 9 -42 22
-67 25 -2 0 -34 9 -70 19 -36 10 -65 17 -65 15 0 -3 -12 0 -27 6 -16 6 -37 12
-48 13 -11 2 -33 6 -50 10 -48 10 -78 17 -105 22 -30 5 -66 13 -100 20 -14 2
-36 7 -50 9 -14 2 -50 8 -80 14 -30 6 -71 13 -90 16 -19 3 -48 8 -63 11 -15 3
-44 8 -65 10 -20 2 -50 6 -67 9 -16 3 -48 7 -70 10 -82 9 -139 17 -156 20 -10
2 -49 6 -86 10 -37 3 -90 8 -118 11 -27 3 -84 7 -125 10 -41 2 -97 7 -125 10
-53 6 -912 14 -917 9z"/>
</g>
</svg>
