<?xml version="1.0" encoding="utf-8"?>
<!-- Svg Vector Icons : http://www.onlinewebfonts.com/icon -->
<!DOCTYPE svg PUBLIC "-//W3C//DTD SVG 1.1//EN" "http://www.w3.org/Graphics/SVG/1.1/DTD/svg11.dtd">
<svg version="1.1" xmlns="http://www.w3.org/2000/svg" xmlns:xlink="http://www.w3.org/1999/xlink" x="0px" y="0px" viewBox="0 0 1000 1000" enable-background="new 0 0 1000 1000" xml:space="preserve">
<metadata> Svg Vector Icons : http://www.onlinewebfonts.com/icon </metadata>
<g><path d="M990,500c0-270.6-219.4-490-490-490C229.4,10,10,229.4,10,500s219.4,490,490,490c75.6,0,147.2-17.1,211.1-47.7l0-0.1c8.3-3.2,14.2-11.3,14.2-20.7c0-12.3-10-22.3-22.3-22.3c-4.1,0-7.8,1.1-11.1,3c-58.1,27.4-123.2,43.3-191.9,43.3C254,945.5,54.5,746.1,54.5,500C54.5,254,254,54.6,500,54.6C746,54.6,945.5,254,945.5,500c0,90.2-26.8,174.1-72.9,244.2l0.1,0.1c-1.9,3.3-3,7.1-3,11.1c0,12.4,10,22.4,22.4,22.4c9,0,16.7-5.3,20.3-12.9l0,0C961.5,688.9,990,597.6,990,500L990,500z"/><path d="M310.1,237.8c0.9,0,2.3,0.2,3.5,1.4L421.4,347c1.2,1.2,1.4,2.4,1.4,3.2c0,0.8-0.3,2-1.4,3.1l-41.3,40c-7.4,7.2-11.5,16.8-11.6,27c-0.1,10.2,3.9,19.9,11.2,27.2l172.7,172.7c7.2,7.2,16.7,11.1,26.9,11.1c10.4,0,20.1-4.1,27.3-11.6l40-41.3c1.1-1.1,2.3-1.4,3.2-1.4c0.8,0,2,0.2,3.2,1.3l107.8,107.8c1.2,1.2,1.5,2.6,1.5,3.5c0,0.9-0.2,2.2-1.4,3.4L713,740.8c-13.2,13.2-35.2,21.4-57.3,21.4c-11.4,0-22.1-2.2-30.9-6.4l-1-0.5l-1.1-0.4c-1-0.4-100.2-37.7-222.9-161.7c-57-57.7-95.9-113.6-118.4-150.4c-24.5-40-35.6-66.7-35.8-66.9l-0.4-1l-0.5-0.9c-13.3-25.5-6.6-66.3,14.3-87.2l47.7-47.7C307.9,238,309.2,237.8,310.1,237.8 M310.1,213.9c-7.3,0-14.7,2.8-20.3,8.4L242.2,270c-28,28-36.9,79.8-18.6,115c0,0,45,109.5,159.3,225c127.9,129.2,231.7,167.3,231.7,167.3c12.4,5.9,26.7,8.8,41.2,8.8c27.5,0,55.9-10.1,74.2-28.4l47.7-47.7c11.2-11.2,11.2-29.3,0-40.6L669.8,561.6c-5.6-5.6-12.8-8.3-20-8.3c-7.4,0-14.7,2.9-20.3,8.6l-40,41.3c-2.8,2.9-6.5,4.3-10.2,4.3c-3.6,0-7.2-1.4-10-4.2L396.5,430.6c-5.6-5.6-5.5-14.7,0.2-20.2l41.3-40c11.4-11,11.5-29,0.3-40.3L330.5,222.3C324.9,216.7,317.5,213.9,310.1,213.9L310.1,213.9L310.1,213.9z"/></g>
</svg>