<?xml version="1.0" encoding="UTF-8" standalone="no"?>
<svg
   xmlns:dc="http://purl.org/dc/elements/1.1/"
   xmlns:cc="http://creativecommons.org/ns#"
   xmlns:rdf="http://www.w3.org/1999/02/22-rdf-syntax-ns#"
   xmlns:svg="http://www.w3.org/2000/svg"
   xmlns="http://www.w3.org/2000/svg"
   xmlns:sodipodi="http://sodipodi.sourceforge.net/DTD/sodipodi-0.dtd"
   xmlns:inkscape="http://www.inkscape.org/namespaces/inkscape"
   version="1.1"
   id="Capa_1"
   x="0px"
   y="0px"
   viewBox="0 0 231.35601 284.822"
   xml:space="preserve"
   sodipodi:docname="waving_flag_white.svg"
   width="231.356"
   height="284.82199"
   inkscape:version="1.0.1 (3bc2e813f5, 2020-09-07)"><metadata
   id="metadata94"><rdf:RDF><cc:Work
       rdf:about=""><dc:format>image/svg+xml</dc:format><dc:type
         rdf:resource="http://purl.org/dc/dcmitype/StillImage" /><dc:title></dc:title></cc:Work></rdf:RDF></metadata><defs
   id="defs92" /><sodipodi:namedview
   pagecolor="#ffffff"
   bordercolor="#666666"
   borderopacity="1"
   objecttolerance="10"
   gridtolerance="10"
   guidetolerance="10"
   inkscape:pageopacity="0"
   inkscape:pageshadow="2"
   inkscape:window-width="1920"
   inkscape:window-height="1121"
   id="namedview90"
   showgrid="false"
   inkscape:zoom="2.5805591"
   inkscape:cx="115.678"
   inkscape:cy="142.411"
   inkscape:window-x="-9"
   inkscape:window-y="-9"
   inkscape:window-maximized="1"
   inkscape:current-layer="Capa_1" />
<g
   id="g57"
   style="fill:#ffffff"
   transform="translate(-26.733)">
	<path
   style="fill:#ffffff"
   d="m 75.326,28.49 c 13.086,-7.789 38.851,-18.933 66.291,-7.511 37.519,15.61 50.872,46.515 107.775,5.635 4.879,-3.508 8.697,-1.675 8.697,4.335 v 106.513 c 0,6.01 -3.307,14.462 -7.854,18.389 -9.91,8.561 -28.011,21.299 -47.429,20.696 -29.11,-0.914 -57.311,-31.84 -83.696,-31.84 -16.845,0 -33.684,8.153 -43.659,14.055 -5.173,3.057 -9.1,1.082 -9.1,-4.922 V 45.498 c 0.006,-6.005 3.813,-13.935 8.975,-17.008 z"
   id="path53" />
	<path
   style="fill:#ffffff"
   d="m 42.702,0 c -8.817,0 -15.969,7.152 -15.969,15.969 0,2.263 0.479,4.411 1.333,6.347 1.452,3.302 3.758,10.16 3.758,16.165 v 235.463 c 0,6.005 4.873,10.878 10.878,10.878 6.005,0 10.878,-4.873 10.878,-10.878 V 38.481 c 0,-6.005 2.306,-12.858 3.753,-16.165 0.854,-1.936 1.333,-4.085 1.333,-6.347 C 58.671,7.158 51.524,0 42.702,0 Z"
   id="path55" />
</g>
<g
   id="g59"
   transform="translate(-26.733)">
</g>
<g
   id="g61"
   transform="translate(-26.733)">
</g>
<g
   id="g63"
   transform="translate(-26.733)">
</g>
<g
   id="g65"
   transform="translate(-26.733)">
</g>
<g
   id="g67"
   transform="translate(-26.733)">
</g>
<g
   id="g69"
   transform="translate(-26.733)">
</g>
<g
   id="g71"
   transform="translate(-26.733)">
</g>
<g
   id="g73"
   transform="translate(-26.733)">
</g>
<g
   id="g75"
   transform="translate(-26.733)">
</g>
<g
   id="g77"
   transform="translate(-26.733)">
</g>
<g
   id="g79"
   transform="translate(-26.733)">
</g>
<g
   id="g81"
   transform="translate(-26.733)">
</g>
<g
   id="g83"
   transform="translate(-26.733)">
</g>
<g
   id="g85"
   transform="translate(-26.733)">
</g>
<g
   id="g87"
   transform="translate(-26.733)">
</g>
</svg>
