<?xml version="1.0" encoding="UTF-8" standalone="no"?>
<svg
   xmlns:dc="http://purl.org/dc/elements/1.1/"
   xmlns:cc="http://creativecommons.org/ns#"
   xmlns:rdf="http://www.w3.org/1999/02/22-rdf-syntax-ns#"
   xmlns:svg="http://www.w3.org/2000/svg"
   xmlns="http://www.w3.org/2000/svg"
   xmlns:sodipodi="http://sodipodi.sourceforge.net/DTD/sodipodi-0.dtd"
   xmlns:inkscape="http://www.inkscape.org/namespaces/inkscape"
   xml:space="preserve"
   enable-background="new 0 0 873.487 242"
   viewBox="0 0 99.999999 100"
   height="100"
   width="100"
   y="0px"
   x="0px"
   id="Layer_1"
   version="1.1"
   sodipodi:docname="Alpha_logo_square.svg"
   inkscape:version="1.0.1 (3bc2e813f5, 2020-09-07)"><sodipodi:namedview
     pagecolor="#ffffff"
     bordercolor="#666666"
     borderopacity="1"
     objecttolerance="10"
     gridtolerance="10"
     guidetolerance="10"
     inkscape:pageopacity="0"
     inkscape:pageshadow="2"
     inkscape:window-width="1920"
     inkscape:window-height="1121"
     id="namedview31"
     showgrid="false"
     inkscape:zoom="4.1966667"
     inkscape:cx="45.919602"
     inkscape:cy="69.304213"
     inkscape:window-x="-9"
     inkscape:window-y="-9"
     inkscape:window-maximized="1"
     inkscape:current-layer="Layer_1" /><metadata
     id="metadata59"><rdf:RDF><cc:Work
         rdf:about=""><dc:format>image/svg+xml</dc:format><dc:type
           rdf:resource="http://purl.org/dc/dcmitype/StillImage" /><dc:title /></cc:Work></rdf:RDF></metadata><defs
     id="defs57" /><g
     id="g86"
     transform="translate(-65.289909,-0.23828451)"><rect
       style="fill:#ffffff;stroke-width:1.07289"
       id="rect58"
       width="100"
       height="100"
       x="65.289909"
       y="0.23828451" /><g
       id="g71"
       transform="translate(84.670029,10.917204)"><g
         id="g33"
         transform="matrix(0.34194773,0,0,0.34194773,0,-2.5543495)"><path
           style="fill:#ef4144"
           id="path35"
           d="m 132.776,155.388 -9.132,-14.166 -2.093,0.477 -46.527,10.46 3.915,-28.127 c 1.707,-12.287 7.169,-19.549 16.233,-21.598 l 3.018,-0.677 -31.787,-49.28 -13.158,94.47 c -1.117,8.058 -1.847,13.217 7.613,11.089 l 11.577,-2.607 -1.948,13.986 c -1.067,7.684 -3.227,13.316 -6.868,17.146 h 103.472 c 6.6,0 12,-5.399 12,-12 V 164.36 l -18.35,4.128 c -12.196,2.094 -21.541,-3.136 -27.965,-13.1 z" /><path
           style="fill:#ef4144"
           id="path37"
           d="M 17.486,181.337 38.587,29.688 C 40.063,19.065 45.111,14.286 55.428,11.969 L 75.439,7.47 H 12 c -6.6,0 -12,5.4 -12,12 v 155.09 c 0,6.601 5.4,12 12,12 h 5.167 c -0.044,-1.627 0.063,-3.378 0.319,-5.223 z" /><path
           style="fill:#ef4144"
           id="path39"
           d="m 122.035,20.651 57.056,88.488 V 19.47 c 0,-6.6 -5.4,-12 -12,-12 H 109.22 c 4.477,2.621 8.73,6.842 12.815,13.181 z" /><path
           style="fill:#ffffff"
           id="path41"
           d="M 122.035,20.651 C 117.95,14.312 113.697,10.091 109.22,7.47 H 75.439 L 55.428,11.969 C 45.111,14.286 40.063,19.065 38.587,29.688 L 17.486,181.337 c -0.256,1.845 -0.363,3.596 -0.319,5.224 h 46.452 c 3.642,-3.83 5.801,-9.463 6.868,-17.146 l 1.948,-13.986 -11.577,2.607 c -9.46,2.128 -8.73,-3.031 -7.613,-11.089 l 13.158,-94.47 31.787,49.28 -3.018,0.677 c -9.064,2.049 -14.526,9.311 -16.233,21.598 l -3.915,28.127 46.527,-10.46 2.093,-0.477 9.132,14.166 c 6.424,9.964 15.769,15.194 27.965,13.1 l 18.35,-4.128 v -55.221 z" /></g><path
         style="fill:#ef4144;stroke-width:0.341948"
         id="path43"
         d="m 9.5037532,68.820058 v 4.083198 l 3.7545858,-4.125942 c 0.09506,-0.113868 0.214401,-0.171316 0.357336,-0.171316 h 1.142105 c 0.07591,0 0.128572,0.03556 0.156612,0.10703 0.02907,0.07112 0.01505,0.140199 -0.0424,0.206878 l -3.469402,3.854777 3.926244,5.525192 c 0.04753,0.07694 0.06189,0.148063 0.04274,0.214059 -0.01915,0.06702 -0.06634,0.09985 -0.142934,0.09985 h -1.113724 c -0.152166,0 -0.275952,-0.05642 -0.371013,-0.170974 l -3.298426,-4.625186 -0.9417238,1.027553 v 3.554888 c 0,0.134044 -0.06668,0.20004 -0.2000394,0.20004 H 8.4043913 c -0.057105,0 -0.1073716,-0.01881 -0.1497731,-0.05711 -0.043427,-0.03761 -0.064628,-0.08583 -0.064628,-0.142934 v -9.565304 c 0,-0.05745 0.019149,-0.109765 0.057105,-0.157637 0.037956,-0.04753 0.090274,-0.07113 0.157296,-0.07113 h 0.8849607 c 0.067022,0 0.1193398,0.0212 0.1576379,0.06429 0.037272,0.0424 0.056763,0.09267 0.056763,0.149773" /><path
         style="fill:#ef4144;stroke-width:0.341948"
         id="path45"
         d="m 15.443385,68.877163 c -0.04787,-0.08583 -0.04309,-0.149773 0.01402,-0.192517 0.0571,-0.04274 0.118998,-0.06463 0.185336,-0.06463 h 0.828197 c 0.13336,0 0.237996,0.07147 0.31425,0.214743 l 2.270191,4.411468 2.284211,-4.411468 c 0.04753,-0.09574 0.102242,-0.155244 0.164477,-0.178496 0.06189,-0.0236 0.116262,-0.0359 0.164135,-0.0359 h 0.856579 c 0.0571,0 0.107029,0.02667 0.150115,0.07899 0.04274,0.05198 0.04035,0.116262 -0.0075,0.192175 l -2.955112,5.61102 v 3.89752 c 0,0.04822 -0.01949,0.09301 -0.05711,0.135754 -0.03796,0.04274 -0.08549,0.06394 -0.142592,0.06394 h -0.899664 c -0.05711,0 -0.107372,-0.0212 -0.150115,-0.06394 -0.0424,-0.04274 -0.06395,-0.08788 -0.06395,-0.135754 v -3.89752 z" /><path
         style="fill:#ef4144;stroke-width:0.341948"
         id="path47"
         d="m 24.951926,69.733742 v 8.651962 c 0,0.05711 -0.0212,0.107029 -0.06429,0.149773 -0.04274,0.04309 -0.09267,0.06429 -0.149774,0.06429 h -0.899664 c -0.05745,0 -0.104978,-0.02154 -0.142934,-0.06429 -0.03796,-0.0424 -0.05676,-0.09267 -0.05676,-0.149773 V 68.83442 c 0,-0.06702 0.01881,-0.114553 0.05676,-0.142935 0.04787,-0.04753 0.09506,-0.07147 0.142934,-0.07147 h 6.296284 c 0.06634,0 0.113868,0.02394 0.142592,0.07147 0.04753,0.02838 0.07181,0.07591 0.07181,0.142935 v 9.551284 c 0,0.05711 -0.02188,0.107029 -0.06429,0.149773 -0.04274,0.04309 -0.09335,0.06429 -0.150115,0.06429 h -0.899323 c -0.0571,0 -0.107714,-0.02154 -0.150115,-0.06429 -0.04206,-0.0424 -0.06429,-0.09267 -0.06429,-0.149773 v -8.651962 z" /><path
         style="fill:#ef4144;stroke-width:0.341948"
         id="path49"
         d="m 32.047341,78.599763 c -0.06702,0 -0.119682,-0.01915 -0.157296,-0.05711 -0.0383,-0.03762 -0.0571,-0.09027 -0.0571,-0.156954 v -9.537265 c 0,-0.05745 0.0212,-0.109765 0.06429,-0.157296 0.04274,-0.04719 0.09267,-0.07113 0.150115,-0.07113 h 3.169514 c 0.237653,0 0.472913,0.0068 0.706464,0.02154 0.233208,0.01402 0.461287,0.04787 0.685263,0.09951 0.223634,0.05266 0.435299,0.131308 0.635681,0.235602 0.199697,0.104978 0.390162,0.247912 0.57071,0.428802 0.275952,0.275952 0.480437,0.620635 0.614481,1.034734 0.132675,0.413757 0.199355,0.825804 0.199355,1.234773 -0.0089,0.580286 -0.125837,1.073374 -0.349471,1.477556 -0.223975,0.404867 -0.535832,0.726297 -0.935568,0.963951 -0.275952,0.170974 -0.592254,0.297153 -0.949589,0.377852 -0.35631,0.08104 -0.725613,0.12105 -1.106201,0.12105 H 33.14637 v 3.76929 c 0,0.04821 -0.01197,0.0954 -0.03556,0.142592 -0.02394,0.04787 -0.08788,0.07147 -0.192859,0.07147 h -0.870599 z m 3.14079,-5.153836 c 0.304333,0 0.582679,-0.02872 0.835036,-0.08549 0.252016,-0.05745 0.471204,-0.154903 0.656882,-0.29305 0.185336,-0.137462 0.32827,-0.320746 0.428119,-0.549168 0.10019,-0.228079 0.150115,-0.50916 0.150115,-0.842559 0,-0.371355 -0.04993,-0.678082 -0.150115,-0.920523 -0.09985,-0.242783 -0.240048,-0.444874 -0.420938,-0.606957 -0.18089,-0.162084 -0.397343,-0.273217 -0.649359,-0.334767 -0.252699,-0.06258 -0.53549,-0.09335 -0.84974,-0.09335 h -1.027895 -1.013875 v 3.726547 h 2.04177 z" /><path
         style="fill:#ef4144;stroke-width:0.341948"
         id="path51"
         d="m 39.485388,73.602881 v -0.01402 -0.456842 c 0,-0.190807 0.0055,-0.397344 0.0147,-0.620977 0.0089,-0.223634 0.0212,-0.455133 0.03556,-0.692787 0.01436,-0.237653 0.03078,-0.471204 0.04992,-0.699283 0.01881,-0.219188 0.05198,-0.426067 0.100191,-0.620977 0.04719,-0.19491 0.109081,-0.378536 0.185677,-0.54951 0.161741,-0.371355 0.446926,-0.685263 0.855895,-0.94275 0.304676,-0.180548 0.64081,-0.299546 1.007036,-0.356651 0.366226,-0.0571 0.74955,-0.08549 1.149287,-0.08549 0.418886,0 0.813835,0.02838 1.185191,0.08549 0.371013,0.05711 0.708515,0.18089 1.013875,0.371355 0.208588,0.13336 0.377852,0.273558 0.506424,0.420596 0.128572,0.148063 0.235602,0.307069 0.321089,0.478385 0.09506,0.190465 0.164135,0.400079 0.20722,0.6285 0.04274,0.228079 0.07352,0.470862 0.09267,0.728006 0.01915,0.219189 0.03556,0.440429 0.04992,0.664063 0.01436,0.223292 0.02394,0.440087 0.02872,0.649017 0.0048,0.209272 0.0072,0.40213 0.0072,0.577891 v 0.435642 0.499585 c 0,0.209614 -0.0051,0.4353 -0.01402,0.678083 -0.0099,0.242441 -0.02188,0.49514 -0.03625,0.756388 -0.01402,0.262274 -0.03556,0.507109 -0.06429,0.735188 -0.03762,0.362464 -0.123444,0.685605 -0.256803,0.971473 -0.08549,0.190465 -0.19491,0.362123 -0.328612,0.513948 -0.13336,0.152508 -0.308779,0.299888 -0.527967,0.44248 -0.333057,0.219188 -0.690051,0.347761 -1.070981,0.385717 -0.380929,0.03796 -0.751601,0.05676 -1.113381,0.05676 -0.171316,0 -0.349813,-0.0027 -0.535149,-0.0068 -0.185677,-0.0055 -0.371013,-0.02188 -0.557032,-0.04992 -0.185678,-0.02838 -0.368962,-0.07386 -0.549168,-0.135411 -0.181233,-0.06224 -0.357336,-0.144986 -0.528652,-0.249964 -0.351864,-0.228421 -0.606957,-0.485224 -0.764253,-0.771092 -0.156954,-0.285527 -0.263641,-0.627816 -0.320747,-1.027895 -0.02838,-0.237996 -0.05334,-0.492405 -0.07147,-0.763911 -0.01915,-0.271165 -0.03351,-0.535149 -0.04274,-0.791951 -0.0099,-0.257145 -0.0171,-0.492747 -0.02154,-0.706464 -0.0044,-0.214401 -0.0075,-0.388453 -0.0075,-0.520787 z m 5.354218,-2.841244 c -0.07591,-0.257145 -0.21406,-0.480437 -0.414099,-0.671243 -0.228079,-0.199698 -0.46881,-0.318696 -0.720826,-0.356652 -0.252699,-0.03796 -0.526257,-0.05711 -0.821016,-0.05711 -0.276294,0 -0.542671,0.01915 -0.799474,0.05711 -0.257145,0.03796 -0.499586,0.156954 -0.728007,0.356652 -0.104978,0.0954 -0.193542,0.197987 -0.264325,0.307069 -0.07113,0.109081 -0.121392,0.231156 -0.149432,0.363832 -0.03864,0.162083 -0.06702,0.376143 -0.08617,0.642178 -0.01915,0.267061 -0.03351,0.540619 -0.04309,0.821016 -0.0092,0.281081 -0.01368,0.54951 -0.01368,0.806313 v 0.571395 c 0,0.123443 0.0021,0.323824 0.0068,0.599776 0.0048,0.276294 0.01163,0.56353 0.0212,0.86376 0.0096,0.299546 0.02359,0.580285 0.04309,0.842217 0.01881,0.262274 0.04309,0.4353 0.07181,0.521129 0.04719,0.133017 0.101559,0.256802 0.164135,0.371355 0.06155,0.113868 0.144644,0.218846 0.249622,0.313908 0.228421,0.199697 0.470862,0.316302 0.728007,0.349812 0.256803,0.03351 0.52318,0.04993 0.799474,0.04993 0.294759,0 0.568317,-0.01641 0.821016,-0.04993 0.252016,-0.03385 0.492747,-0.150115 0.720826,-0.349812 0.200039,-0.190123 0.338186,-0.418886 0.414099,-0.685263 0.02872,-0.09506 0.05232,-0.273901 0.07147,-0.535491 0.01915,-0.261931 0.03317,-0.540277 0.04274,-0.835036 0.0092,-0.295101 0.01641,-0.578233 0.02154,-0.849398 0.0048,-0.271165 0.0072,-0.473256 0.0072,-0.606615 0,-0.123443 -0.0024,-0.323141 -0.0072,-0.599777 -0.0051,-0.275951 -0.01231,-0.56182 -0.02154,-0.856921 -0.0096,-0.294417 -0.02359,-0.573446 -0.04274,-0.834352 -0.01915,-0.261932 -0.04274,-0.444874 -0.07147,-0.549852" /><path
         style="fill:#ef4144;stroke-width:0.341948"
         id="path53"
         d="m 46.738783,68.877163 c -0.04821,-0.08583 -0.04308,-0.149773 0.01436,-0.192517 0.05676,-0.04274 0.118656,-0.06463 0.185336,-0.06463 h 0.828197 c 0.133018,0 0.237654,0.07147 0.313908,0.214743 l 2.269849,4.411468 2.284895,-4.411468 c 0.04753,-0.09574 0.1019,-0.155244 0.164135,-0.178496 0.06189,-0.0236 0.116604,-0.0359 0.164135,-0.0359 h 0.856579 c 0.0571,0 0.10703,0.02667 0.150115,0.07899 0.0424,0.05198 0.04035,0.116262 -0.0068,0.192175 l -2.955796,5.61102 v 3.89752 c 0,0.04822 -0.01915,0.09301 -0.0571,0.135754 -0.0383,0.04274 -0.08549,0.06394 -0.142935,0.06394 h -0.899322 c -0.0571,0 -0.106688,-0.0212 -0.150115,-0.06394 -0.0424,-0.04274 -0.06429,-0.08788 -0.06429,-0.135754 v -3.89752 z" /></g></g></svg>
